<?xml version="1.0" encoding="utf-8"?>
<!-- Generator: Adobe Illustrator 25.3.1, SVG Export Plug-In . SVG Version: 6.00 Build 0)  -->
<svg version="1.1" id="Layer_1" xmlns="http://www.w3.org/2000/svg" xmlns:xlink="http://www.w3.org/1999/xlink" x="0px" y="0px"
	 viewBox="0 0 800 800" style="enable-background:new 0 0 800 800;" xml:space="preserve">
<style type="text/css">
	.st0{fill:#FFFFFF;}
</style>
<path class="st0" d="M675,50H125c-41.4,0-75,33.6-75,75v550c0,41.4,33.6,75,75,75h550c41.4,0,75-33.6,75-75V125
	C750,83.6,716.4,50,675,50z M655.7,250.3c-13.5,20.2-30.1,37.8-49.4,52.3c0.1,3,0.1,6.1,0.1,9.1c0,72.5-28,145.9-76.9,201.3
	c-39.2,44.5-109.5,97.5-221.9,97.5c-57.2,0-112.8-16.3-161-47.2c-3.3-2.1-4.6-6.1-3.3-9.8c1.3-3.6,5-5.9,8.8-5.4
	c7.7,0.9,15.6,1.4,23.4,1.4c37.5,0,73.2-10.2,104.4-29.8c-37.6-8.5-68.8-36.2-80.9-74c-0.9-2.8-0.3-5.8,1.7-8
	c1.9-2.2,4.9-3.2,7.8-2.6c2.8,0.5,5.6,0.9,8.4,1.2c-32.7-19.5-54-55.2-54-94.9c0-0.5,0-1,0-1.5c0.1-2.9,1.6-5.6,4.2-7
	c2.5-1.4,5.6-1.5,8.2-0.1c4.7,2.6,9.7,4.8,14.8,6.6c-16.8-19.7-26.3-45-26.3-71.6c0-19.5,5.2-38.7,15-55.5c1.4-2.4,3.8-3.9,6.5-4.1
	c2.7-0.2,5.4,0.9,7.1,3c48.2,59.2,118.4,96.3,194,102.9c-0.6-4.7-0.9-9.5-0.9-14.3c0-60.9,49.5-110.4,110.4-110.4
	c28.8,0,56.7,11.4,77.3,31.5c20.4-4.5,39.8-12.2,57.9-22.9c3-1.8,6.7-1.5,9.4,0.6c2.7,2.1,3.8,5.7,2.7,9
	c-4.7,14.6-12.3,28-22.4,39.4c8.5-2.5,16.8-5.5,24.9-9.1c3.4-1.5,7.3-0.6,9.7,2.2C657.6,243.1,657.8,247.2,655.7,250.3z"/>
</svg>
